<svg width="353" height="131" viewBox="0 0 353 131" fill="none" xmlns="http://www.w3.org/2000/svg">
<path d="M322.395 0.670406C321.06 0.744549 319.837 0.929905 319.651 1.15233C319.429 1.33768 318.651 1.48597 317.909 1.48597C317.131 1.48597 316.389 1.63425 316.278 1.85668C316.167 2.04203 315.685 2.22739 315.24 2.22739C314.239 2.22739 308.53 4.11801 308.382 4.52579C308.308 4.67407 307.937 4.82236 307.529 4.82236C307.159 4.82236 306.825 4.97064 306.825 5.19307C306.825 5.37842 306.491 5.56378 306.083 5.56378C305.676 5.56378 305.342 5.71206 305.342 5.93449C305.342 6.11984 305.12 6.30519 304.823 6.30519C304.527 6.30519 304.23 6.41641 304.156 6.60176C304.119 6.75005 303.229 7.41732 302.191 8.04753C300.671 9.01138 297.743 11.6805 295.889 13.8306C294.406 15.4988 291.107 20.7258 289.809 23.4691C287.622 28.0659 286.807 31.9212 286.547 39.113C286.399 43.7098 286.473 44.1547 287.548 46.3418C287.696 46.6755 287.956 47.491 288.104 48.1954C288.364 49.5299 289.698 51.9766 290.217 52.1991C290.365 52.2732 290.514 52.5327 290.514 52.7551C290.514 53.3853 294.554 57.5743 296 58.3899C296.63 58.7977 297.186 59.2425 297.186 59.3908C297.186 59.5391 297.52 59.6874 297.928 59.6874C298.336 59.6874 298.669 59.8357 298.669 60.0581C298.669 60.2435 299.003 60.4288 299.374 60.4288C299.781 60.4288 300.152 60.5771 300.226 60.7254C300.412 61.2073 305.676 62.7272 308.641 63.135C314.128 63.9135 322.914 63.135 326.769 61.5039C327.214 61.3185 327.955 61.0219 328.437 60.8366C330.513 60.021 334.925 57.6114 336.482 56.4622C339.447 54.2009 346.12 47.4169 346.12 46.6384C346.12 46.4901 346.305 46.3418 346.491 46.3418C346.713 46.3418 346.862 46.0082 346.862 45.6004C346.862 45.1926 347.01 44.859 347.195 44.859C347.381 44.859 347.825 44.1176 348.233 43.1908C348.604 42.264 349.012 41.5226 349.197 41.5226C349.345 41.5226 349.457 41.2631 349.457 40.9295C349.457 40.5958 349.938 38.8906 350.532 37.1112C351.755 33.5524 352.422 29.697 352.422 26.3606C352.422 22.3199 351.384 16.4997 350.495 15.3876C350.346 15.2022 350.198 14.7574 350.198 14.3867C350.198 14.016 350.087 13.7194 349.901 13.7194C349.753 13.7194 349.345 13.0521 349.012 12.2736C348.307 10.6425 344.267 6.52762 342.71 5.82327C342.154 5.60085 341.672 5.26721 341.672 5.15599C341.672 4.48872 334.109 1.52304 332.404 1.48597C331.848 1.48597 331.292 1.33768 331.106 1.15233C330.662 0.78162 325.879 0.522125 322.395 0.670406ZM328.141 5.19307C328.252 5.37842 328.697 5.56378 329.105 5.56378C329.512 5.56378 330.736 6.45348 331.774 7.49147C334.369 10.1235 334.999 11.4951 335.889 16.3144C336.63 20.1697 336.63 23.5061 335.926 26.6942C335.629 28.0288 335.407 30.216 335.37 31.5876C335.37 32.9592 335.221 34.1826 334.999 34.2938C334.813 34.405 334.628 34.9981 334.628 35.5913C334.628 36.1844 334.48 36.7775 334.257 36.8887C334.072 37 333.887 37.519 333.887 38.0009C333.887 38.4828 333.738 38.9647 333.553 39.0759C333.405 39.1871 333.145 39.9656 332.997 40.7812C332.886 41.6338 332.404 43.0796 331.996 44.0434C330.513 47.3428 329.624 49.1222 329.364 49.2334C329.179 49.3075 329.067 49.5299 329.067 49.7524C329.067 50.2343 326.843 53.0146 324.767 55.0906C323.915 55.9062 322.024 57.2407 320.504 58.0192C317.946 59.3538 317.538 59.465 314.61 59.465C310.903 59.465 308.827 58.6494 306.788 56.4251C304.638 54.0897 304.341 53.4224 303.118 48.529C302.599 46.5643 302.821 36.6292 303.451 33.367C303.674 32.2549 303.97 30.4755 304.156 29.4746C304.564 27.102 306.121 22.0974 306.528 21.9491C306.677 21.875 306.825 21.3189 306.825 20.7258C306.825 20.1327 307.01 19.6507 307.196 19.6507C307.418 19.6507 307.566 19.3171 307.566 18.9093C307.566 18.5015 307.678 18.1679 307.863 18.1679C308.011 18.1679 308.456 17.3894 308.827 16.3885C309.235 15.4247 309.642 14.572 309.791 14.4608C309.902 14.3496 310.532 13.534 311.162 12.6073C313.238 9.56744 318.354 5.56378 320.17 5.56378C320.541 5.56378 320.986 5.37842 321.097 5.19307C321.208 4.97064 322.803 4.82236 324.619 4.82236C326.435 4.82236 328.03 4.97064 328.141 5.19307Z" fill="#19191E"/>
<path d="M260.121 10.0132C260.121 11.459 261.122 12.4599 262.938 12.7564C263.754 12.9047 265.088 13.3867 265.978 13.8315L267.572 14.6471L267.387 16.686C267.202 18.9844 266.423 22.9139 265.348 27.2512C264.125 32.1446 263.791 33.7015 263.569 35.1473C263.457 35.9999 263.198 36.8155 263.05 36.9267C262.864 37.0379 262.716 37.6681 262.716 38.3725C262.716 39.0768 262.568 39.707 262.382 39.8182C262.234 39.9295 261.975 40.8192 261.863 41.783C261.678 43.3771 261.233 45.453 260.084 50.2352C259.713 51.7551 259.157 54.2389 258.749 56.0553C258.564 56.9821 258.416 57.0933 256.97 57.0933C255.524 57.0933 255.265 57.2416 253.411 59.3546C248.258 65.1748 245.663 66.9913 239.695 68.919C238.064 69.438 230.242 69.475 229.908 68.956C229.797 68.7336 229.426 68.5853 229.13 68.5853C228.388 68.5853 225.46 66.5464 223.977 65.0265C222.679 63.6919 220.826 60.3185 220.826 59.3176C220.826 58.9098 220.677 58.5391 220.492 58.4279C220.047 58.1313 219.751 49.9757 220.084 46.5281C220.529 42.1537 222.494 33.0713 223.161 32.367C223.309 32.2558 223.421 31.8109 223.421 31.4402C223.421 31.0695 223.532 30.7729 223.717 30.7729C223.866 30.7729 224.199 30.2169 224.459 29.5496C225.311 27.5478 226.164 25.9537 226.461 25.9537C226.572 25.9537 226.831 25.6201 226.942 25.1752C227.202 24.3967 231.28 20.1706 232.503 19.3921C237.396 16.3894 242.809 15.4256 245.96 17.0196C249.259 18.6507 251.483 20.1336 252.336 21.2828C253.077 22.2466 254.894 25.2494 255.153 25.9537C255.524 26.9546 255.969 27.9555 256.562 29.3642C256.896 30.1057 257.155 31.5144 257.155 32.5153C257.155 34.6283 257.934 35.9629 259.194 35.9629C260.418 35.9629 261.085 34.8137 261.604 31.8851C261.863 30.5505 262.197 29.1789 262.382 28.8452C262.568 28.4745 262.716 27.8814 262.716 27.5107C262.716 27.14 262.864 26.6951 263.05 26.4727C263.235 26.2873 263.457 25.3976 263.569 24.4709C263.865 22.0983 264.421 19.3921 265.051 17.205C265.348 16.1299 265.496 15.0919 265.348 14.9066C264.903 14.1651 262.456 14.1651 261.233 14.8695C259.528 15.9445 258.342 15.8333 252.484 14.0539C251.854 13.8686 250.927 13.7203 250.371 13.7203C249.852 13.7203 249.333 13.572 249.222 13.3867C248.703 12.534 240.14 12.2004 236.025 12.9047C233.764 13.2754 232.651 13.5349 229.352 14.3876C226.905 15.0178 220.307 18.5024 218.379 20.2077C218.12 20.3931 217.156 21.2457 216.192 22.0613C215.191 22.8768 214.227 23.7665 214.005 24.026C213.782 24.2855 212.893 25.2494 212.04 26.2132C211.187 27.14 210.372 28.215 210.261 28.5857C210.112 28.9935 209.89 29.2901 209.704 29.2901C209.556 29.2901 209.334 29.5867 209.185 29.9203C209.074 30.291 208.444 31.5885 207.777 32.8118L206.553 35.0361L196.396 35.1473C187.573 35.2215 186.127 35.3327 185.534 35.8517C185.163 36.1853 184.867 36.6301 184.867 36.8526C184.867 37.1121 184.385 37.8535 183.755 38.5578C182.494 40.0777 182.346 40.7821 183.384 40.7821C183.792 40.7821 184.125 40.9304 184.125 41.1528C184.125 41.3382 184.682 41.5235 185.386 41.5235C186.09 41.5235 186.795 41.6718 186.906 41.8942C187.017 42.0796 187.573 42.2649 188.129 42.2649C188.685 42.2649 189.723 42.7469 190.428 43.34L191.688 44.415L190.242 47.3437C189.427 48.9377 188.648 50.2723 188.5 50.3464C188.314 50.4205 188.203 50.7171 188.203 51.0137C188.203 51.3102 188.055 51.5327 187.833 51.5327C187.647 51.5327 187.462 51.8663 187.462 52.2741C187.462 52.6819 187.314 53.0155 187.091 53.0155C186.906 53.0155 186.72 53.2009 186.72 53.3862C186.72 53.8311 184.793 56.8709 184.422 57.0192C184.237 57.0933 184.125 57.3157 184.125 57.5011C184.125 57.9089 180.863 62.9876 179.974 63.9144C179.603 64.3222 179.306 64.767 179.306 64.9524C179.306 65.1006 178.713 66.1386 178.009 67.2508C177.304 68.3629 176.711 69.475 176.711 69.6974C176.711 69.8828 176.563 70.0682 176.341 70.0682C176.155 70.0682 175.97 70.3277 175.97 70.6242C175.97 70.9208 175.822 71.1803 175.673 71.1803C175.525 71.1803 174.895 72.1071 174.302 73.2192C173.671 74.3313 173.078 75.2581 172.93 75.2581C172.745 75.2581 172.633 75.4434 172.633 75.6288C172.633 75.9995 170.817 78.9652 170.372 79.3359C170.224 79.4471 169.668 80.411 169.112 81.486C167.888 83.8215 167.295 83.6361 166.925 80.7075C166.628 78.2979 165.775 73.0709 165.256 70.6242C165.034 69.5862 164.737 67.881 164.626 66.8059C164.478 65.7309 164.218 64.767 164.07 64.6558C163.885 64.5446 163.736 64.0256 163.736 63.5066C163.736 62.9505 163.588 62.0238 163.403 61.3936C163.18 60.7633 162.847 58.9098 162.587 57.2787C162.365 55.6476 161.994 53.3862 161.809 52.2741C161.66 51.162 161.327 49.2343 161.141 48.0109C160.956 46.7876 160.697 45.3789 160.585 44.8599C160.252 43.2658 161.179 42.5615 163.885 42.3761C165.219 42.2649 166.331 42.0054 166.331 41.8572C166.331 41.6718 166.554 41.5235 166.813 41.5235C168.593 41.5235 170.409 39.2622 169.223 38.5208C168.519 38.0759 140.27 38.113 139.121 38.5578C137.082 39.2993 138.565 42.0054 141.234 42.4132C142.791 42.6727 144.83 44.0073 144.83 44.8228C144.83 45.0453 144.979 45.5272 145.201 45.8979C145.683 46.7505 147.054 52.0887 147.054 53.0526C147.054 53.7199 146.906 53.794 145.868 53.6457C143.829 53.3121 142.458 52.9784 141.679 52.6448C140.011 51.9405 135.229 51.7551 117.583 51.718H99.0476V53.3862C99.0476 55.0173 99.0846 55.0544 100.53 55.351C101.346 55.5363 102.31 55.8329 102.643 56.0183C103.014 56.2036 103.719 56.3519 104.238 56.3519C106.091 56.3519 106.313 59.2064 104.794 64.3222C104.571 65.1377 104.163 66.7688 103.904 67.9551C103.644 69.2897 103.2 70.3277 102.755 70.6613C102.162 71.1061 98.0096 71.1803 77.6576 71.1803C62.1619 71.1803 53.2649 71.032 53.2649 70.8096C53.2649 70.6242 53.5615 69.9199 53.9693 69.2155C54.34 68.5482 54.7107 67.4361 54.8219 66.7318C55.1926 63.9885 57.3798 53.9052 57.7134 53.3121C58.2324 52.4224 58.1953 50.68 57.6393 50.124C56.9349 49.4196 55.4521 49.605 54.4882 50.4576C53.1537 51.7551 50.4475 51.8292 47.6301 50.68C46.3326 50.161 44.5532 49.5679 43.6264 49.3084C42.6997 49.0489 41.5875 48.7153 41.1056 48.5299C39.9194 48.0851 29.28 48.0851 28.9834 48.567C28.8722 48.7523 28.3161 48.9377 27.7601 48.9377C26.7221 48.9377 24.2013 49.7162 23.7564 50.161C23.6081 50.3093 23.2374 50.4205 22.9779 50.4205C22.3106 50.4205 18.5294 52.2 17.5285 52.9784C15.8974 54.2759 12.598 57.8718 11.9308 59.0952C11.523 59.8366 11.0781 60.4297 10.9298 60.4297C10.7445 60.4297 10.6333 60.8375 10.6333 61.3565C10.6333 61.8755 10.485 62.2833 10.2626 62.2833C10.0772 62.2833 9.89186 62.691 9.89186 63.173C9.89186 63.6919 9.74358 64.2109 9.52115 64.3222C8.92801 64.6929 9.0763 70.8096 9.74358 72.4778C10.0401 73.2933 10.3738 74.2572 10.5221 74.5908C10.6333 74.9615 10.8186 75.2581 10.9669 75.2581C11.1152 75.2581 11.4488 75.8512 11.6713 76.5556C12.1532 77.8901 15.193 80.8187 16.0456 80.8187C16.3422 80.8187 16.5646 80.93 16.5646 81.1153C16.5646 81.2636 17.1207 81.5602 17.788 81.8197C21.2356 83.043 22.6813 83.6361 22.7926 83.8586C22.8667 84.0439 23.3116 84.1551 23.7935 84.1551C24.2754 84.1551 24.7944 84.3034 24.9056 84.5258C25.0168 84.7112 25.5358 84.8965 26.0548 84.8965C26.5367 84.8965 26.9445 85.0448 26.9445 85.2302C26.9445 85.4155 27.4635 85.638 28.0937 85.7862C30.5775 86.2682 34.1734 88.3441 36.3235 90.4943L38.4365 92.6814V95.6101C38.4365 97.9085 38.2512 98.8723 37.621 100.17C36.1752 102.913 34.3958 104.433 31.0965 105.656C29.3912 106.324 21.9399 106.324 20.2717 105.693C16.3793 104.211 14.3404 102.728 12.4498 100.096C11.7825 99.1689 11.1523 98.3533 11.004 98.2421C10.5591 97.8714 8.8168 93.9048 8.22367 91.8288C7.51932 89.308 6.11062 87.4915 4.88728 87.4915C3.77515 87.4915 3.0708 89.308 2.58888 93.3117C2.47766 94.2014 2.25524 94.9057 2.06988 94.9057C1.88453 94.9057 1.73625 95.4988 1.73625 96.2032C1.73625 96.9075 1.58796 97.7972 1.40261 98.1679C0.587045 99.762 -0.413871 108.474 0.179264 109.067C0.7724 109.66 4.14586 108.474 5.81405 107.139C6.62961 106.472 6.92618 106.435 7.96417 106.805C8.59438 107.028 9.15044 107.362 9.15044 107.547C9.15044 107.732 9.44701 107.881 9.81772 107.881C10.1884 107.881 10.6333 108.029 10.8557 108.177C11.2264 108.511 13.9326 109.363 17.3061 110.179C18.6035 110.476 21.6063 110.661 25.647 110.624C32.2827 110.624 34.6182 110.253 38.3253 108.622C41.9212 107.028 46.2214 104.544 46.2214 104.099C46.2214 103.951 46.4438 103.803 46.7033 103.803C46.9258 103.766 47.7413 103.024 48.4457 102.097C49.15 101.134 49.9285 100.207 50.1139 99.9474C50.7812 99.243 52.5235 95.054 52.5235 94.2384C52.5235 93.7936 52.7088 93.3487 52.8942 93.2375C53.1166 93.1263 53.2649 91.4581 53.2649 89.5675C53.2649 86.5277 53.1537 85.8975 52.1528 83.8586C51.1148 81.6714 48.0379 78.2238 47.1482 78.2238C46.9258 78.2238 46.518 77.8901 46.2214 77.4823C45.9249 77.0746 45.4059 76.7409 45.0351 76.7409C44.6644 76.7409 44.3679 76.5556 44.3679 76.3702C44.3679 76.1478 44.1454 75.9995 43.8859 75.9995C43.404 75.9995 41.6988 75.2952 40.2159 74.4796C39.8452 74.2942 39.1409 74.146 38.6219 74.146C38.1029 74.146 37.6951 73.9606 37.6951 73.7753C37.6951 73.5528 37.4356 73.4045 37.139 73.4045C36.8425 73.4045 36.2864 73.2563 35.9157 73.0709C35.582 72.8856 34.8036 72.5519 34.1734 72.2924C33.5802 72.0329 32.7647 71.6993 32.431 71.5139C32.0603 71.3286 31.6155 71.1803 31.393 71.1803C30.7628 71.1803 28.0566 69.9199 28.0566 69.6233C28.0566 69.438 27.9084 69.3267 27.6859 69.3267C27.3523 69.3267 26.9816 69.0672 25.128 67.4732C23.4228 66.0645 23.1262 59.8736 24.609 57.5752C25.7953 55.7588 29.7619 53.0155 31.2818 53.0155C31.7267 53.0155 32.2086 52.8302 32.3198 52.6448C32.6164 52.1629 38.2141 52.1629 39.1038 52.6077C39.4374 52.7931 40.6608 53.3492 41.7729 53.8681C44.1454 54.9432 46.2214 56.8338 47.1482 58.8357C47.5189 59.6141 48.112 60.9116 48.4827 61.6901C48.8905 62.5057 49.1871 63.3954 49.1871 63.729C49.1871 65.0265 51.226 70.0682 51.745 70.0682C51.9304 70.0682 52.1898 70.8837 52.3381 71.9217C52.5235 73.3675 52.8201 73.9235 53.6356 74.5167C54.1917 74.9245 54.9702 75.2581 55.3409 75.2581C56.2677 75.2581 58.5661 76.1107 58.8997 76.5556C59.048 76.7409 59.1963 77.7418 59.1592 78.7798C59.1592 80.5222 58.9738 81.7455 58.0471 85.3414C57.8617 86.2311 57.5281 87.6027 57.3427 88.4183C56.8979 90.5684 55.5633 96.3144 55.1185 98.0567C54.9331 98.8723 54.7477 100.096 54.7477 100.726C54.7477 101.393 54.5995 101.949 54.4141 101.949C54.1175 101.949 53.8951 102.765 53.4132 105.916C53.302 106.694 53.0796 107.658 52.9313 108.066C52.4864 109.215 51.3372 113.738 50.8924 116.296C50.6699 117.556 50.3734 118.705 50.188 118.854C50.0397 119.002 49.9285 119.595 49.9285 120.151C49.9285 120.707 49.7802 121.3 49.5578 121.411C49.3725 121.523 49.1871 122.116 49.1871 122.672C49.1871 124.711 48.4086 125.638 46.2214 126.268C45.1093 126.601 43.6635 127.009 43.0333 127.195C42.4031 127.38 41.5505 127.528 41.1427 127.528C40.2901 127.528 39.1779 128.603 39.1779 129.493C39.1779 129.827 39.5486 130.197 39.9935 130.308C40.4754 130.42 52.9313 130.457 67.6855 130.42L94.5249 130.308L95.0068 128.27C95.2663 127.157 95.637 125.563 95.8965 124.748C96.119 123.932 96.4155 122.82 96.5267 122.227C96.6379 121.671 96.8604 121.115 97.0457 121.004C97.2311 120.892 97.3794 120.336 97.3794 119.743C97.3794 119.15 97.5277 118.594 97.713 118.483C97.8613 118.372 98.1208 117.667 98.232 116.889C98.6769 114.331 99.4553 111.921 100.011 111.551C100.308 111.365 104.2 111.217 108.686 111.217C117.324 111.217 117.768 111.143 117.768 109.512C117.768 108.325 116.063 107.287 113.728 107.028C110.614 106.657 110.502 106.435 111.059 101.504C111.318 99.2059 111.652 96.9817 111.8 96.5739C112.356 95.1652 112.875 93.2375 113.32 91.0133C113.542 89.7899 113.913 88.4924 114.098 88.1588C114.284 87.7881 114.432 87.1579 114.432 86.7872C114.432 86.3794 114.617 85.6009 114.877 85.0819C115.73 83.1913 118.881 84.1922 119.474 86.5647C119.585 87.0837 119.844 87.4915 120.03 87.4915C120.215 87.4915 120.363 87.6769 120.363 87.8993C120.363 88.1217 120.66 88.7519 121.068 89.2709C122.365 91.1245 126.665 99.5766 129.038 104.915C129.26 105.434 129.557 105.916 129.668 106.027C130.039 106.361 131.114 109.363 131.114 110.068C131.114 110.438 131.373 110.883 131.707 110.995C132.486 111.291 151.392 111.18 152.8 110.883C153.69 110.698 153.876 110.476 153.801 109.771C153.69 108.696 152.875 107.881 151.911 107.881C150.354 107.881 145.572 104.581 145.572 103.506C145.572 103.321 145.238 102.839 144.83 102.394C144.126 101.653 143.533 100.689 141.457 96.7593C140.975 95.8325 140.493 95.0169 140.382 94.9057C140.27 94.7945 139.677 93.7194 139.084 92.4961C138.454 91.2728 137.49 89.4563 136.897 88.4183C134.895 85.0078 133.672 82.1904 133.968 81.8938C134.154 81.7084 135.155 81.3377 136.23 81.1153C137.305 80.8558 138.157 80.5222 138.157 80.3739C138.157 80.1885 138.38 80.0773 138.676 80.0773C139.307 80.0773 144.311 77.5936 145.349 76.7409C145.757 76.4444 147.054 75.184 148.278 73.9977C150.687 71.5881 151.095 71.6251 151.132 74.3313C151.169 75.1469 151.318 76.6297 151.54 77.6677C151.911 79.6695 152.467 82.7835 152.986 86.0087C153.171 87.1208 153.505 89.1226 153.727 90.4572C153.95 91.7917 154.283 93.4599 154.469 94.1643C154.654 94.8686 154.839 96.0178 154.839 96.648C154.839 98.205 155.581 98.3904 160.252 98.1679C163.959 97.9455 165.219 97.3895 165.219 95.9437C165.219 95.573 165.33 95.2764 165.516 95.2764C165.664 95.2764 166.109 94.6091 166.48 93.7936C166.887 92.978 167.332 92.3107 167.518 92.3107C167.666 92.3107 167.814 92.1254 167.814 91.94C167.814 91.4581 171.929 85.119 172.337 84.9707C172.485 84.8965 172.633 84.6741 172.633 84.4517C172.633 84.2293 173.19 83.3025 173.857 82.3386C174.487 81.4119 175.266 80.1885 175.562 79.5954C175.859 79.0393 176.229 78.5945 176.415 78.5945C176.563 78.5945 176.711 78.4091 176.711 78.2238C176.711 78.0013 176.897 77.6306 177.082 77.3711C177.304 77.1116 178.083 75.8883 178.861 74.6279C179.603 73.3304 180.53 71.9588 180.9 71.551C181.234 71.1432 181.531 70.6984 181.531 70.5872C181.531 70.2535 184.125 66.324 184.867 65.5084C185.275 65.1006 185.608 64.5075 185.608 64.248C185.608 63.9885 185.757 63.7661 185.942 63.7661C186.127 63.7661 186.35 63.4325 186.461 63.0247C186.646 62.2462 187.684 61.653 188.092 62.0608C188.24 62.172 188.129 62.5057 187.907 62.7281C187.647 62.9876 187.462 63.8773 187.462 64.7299C187.462 65.6196 187.314 66.3981 187.128 66.5093C186.98 66.6206 186.72 67.4361 186.609 68.2887C186.387 69.8457 185.571 73.664 184.83 76.5556C184.607 77.3711 184.311 78.7798 184.125 79.7066C183.977 80.6334 183.644 81.9679 183.458 82.6723C183.236 83.3766 182.828 84.8965 182.494 86.0087C182.198 87.1208 181.827 88.4183 181.679 88.8261C181.568 89.2709 181.123 89.827 180.678 90.0494C179.38 90.7167 176.229 91.5693 175.043 91.5693C173.894 91.5693 172.411 92.6444 171.595 94.0901L171.151 94.9057H187.388C199.51 94.9057 203.736 94.7945 204.07 94.4609C204.329 94.2014 204.515 93.4599 204.515 92.7927C204.515 91.6064 204.477 91.5693 202.958 91.5693C202.068 91.5693 200.548 91.2728 199.51 90.902C197.656 90.2348 197.656 90.2348 197.545 88.4183C197.434 86.5647 198.583 79.8549 199.584 76.5556C199.918 75.5176 200.288 73.9606 200.437 73.0338C200.585 72.1071 201.067 69.994 201.512 68.2887C201.957 66.5835 202.29 64.8782 202.29 64.4704C202.29 64.0997 202.439 63.4695 202.624 63.0988C203.18 62.0238 203.773 59.8736 203.773 59.021C203.773 58.5762 203.958 58.2054 204.144 58.2054C204.366 58.2054 204.515 58.502 204.515 58.8357C204.515 59.6883 207.258 64.6929 208.518 66.2128C209.074 66.843 209.779 67.6956 210.112 68.0663C210.854 68.956 211.743 69.6233 213.597 70.8096C218.527 73.9235 225.052 75.4805 231.762 75.1469C237.619 74.8503 240.251 74.2201 243.995 72.1812C244.403 71.9588 245.552 71.4027 246.516 70.9208C247.517 70.4389 248.666 69.6974 249.111 69.3267C249.519 68.919 250.075 68.5853 250.26 68.5853C250.483 68.5853 256.414 68.5112 263.457 68.437C277.581 68.2887 279.62 68.1034 279.954 67.1025C280.288 66.1016 279.769 65.2489 278.842 65.2489C278.36 65.2489 277.841 65.0636 277.73 64.8782C277.618 64.6558 276.951 64.5075 276.247 64.5075C274.505 64.5075 273.133 63.8032 272.873 62.7652C272.577 61.6901 273.133 57.6865 274.171 53.0155C274.356 52.0887 274.653 50.8283 274.764 50.2352C274.912 49.605 275.135 48.7894 275.32 48.3816C275.505 47.9739 275.728 47.1212 275.802 46.5281C275.987 45.3789 277.656 37.9647 278.286 35.4809C279.101 32.2928 279.435 30.8841 279.657 29.3642C279.769 28.5116 280.028 27.696 280.176 27.5848C280.362 27.4736 280.51 26.9175 280.51 26.3244C280.51 25.7313 280.695 24.8045 280.918 24.2114C281.14 23.6553 281.474 22.3208 281.622 21.3198C282.104 18.6507 282.364 17.3532 282.697 16.5006C283.476 14.5729 283.995 13.7203 284.477 13.7203C284.736 13.7203 284.959 13.5349 284.959 13.3496C284.959 13.1272 285.626 12.9789 286.441 12.9789C290.445 12.9789 293.077 11.7185 293.114 9.71662V8.90106H276.618H260.121V10.0132ZM129.891 55.9071C130.261 56.0924 130.966 56.4631 131.485 56.6855C133.116 57.464 133.931 58.3537 134.969 60.578C136.044 62.8764 136.119 64.1368 135.266 68.437C133.783 75.8883 127.963 80.448 119.437 80.8558C116.323 81.0041 116.286 80.967 116.286 79.1876C116.286 78.2608 116.471 77.4082 116.656 77.297C116.879 77.1858 117.027 76.5185 117.027 75.8142C117.027 75.1098 117.175 74.4796 117.361 74.3684C117.546 74.2572 117.768 73.5158 117.88 72.7743C118.102 71.2915 118.992 66.843 119.622 64.3222C119.807 63.5066 120.067 62.3203 120.178 61.7272C120.326 61.097 120.586 60.2814 120.734 59.8736C120.919 59.4659 121.142 58.4649 121.179 57.6494C121.327 55.5734 122.291 55.1286 126.184 55.3881C127.852 55.4993 129.52 55.7217 129.891 55.9071ZM93.524 76.5926C94.7844 77.9272 96.6379 81.1153 97.8242 84.1551C98.0466 84.6741 98.4544 85.5638 98.7881 86.157C99.27 87.1208 99.27 87.5286 98.7139 90.2348C98.3432 91.8659 97.9354 93.7565 97.713 94.3867C97.5277 95.0169 97.3794 95.9437 97.3794 96.4998C97.3794 97.0187 97.2311 97.5748 97.0087 97.686C96.8233 97.7972 96.6379 98.3904 96.6379 98.9835C96.6379 99.5766 96.4897 100.429 96.2672 100.911C96.0819 101.393 95.7482 102.691 95.5258 103.803L95.1551 105.842L92.0041 106.917C89.4462 107.806 88.7789 107.918 88.297 107.51C87.7038 107.028 87.5185 105.1 88.0746 104.767C88.2599 104.655 88.5194 104.025 88.6306 103.358C89.4833 99.0947 90.0022 96.7222 90.7437 93.497C90.9661 92.5332 91.1885 90.8279 91.2256 89.7158C91.2627 87.8993 91.1885 87.6769 90.4842 87.5657C89.6686 87.4544 88.0004 89.4192 86.4064 92.3107C86.0357 93.0151 85.5908 93.6824 85.4796 93.7936C85.3684 93.9048 84.627 94.4609 83.8485 95.0911C83.07 95.6842 82.2544 96.3885 82.032 96.611C81.1052 97.5007 78.881 97.8714 74.6549 97.8714H70.2434L70.4288 96.4627C70.54 95.7213 70.8736 93.9048 71.2073 92.4961C71.5409 91.0503 71.9116 89.308 72.0228 88.6036C72.134 87.8993 72.3565 86.9725 72.5418 86.5647C72.8755 85.7492 73.2091 84.3034 73.5427 82.3016C73.6539 81.5972 73.8764 80.8187 74.0247 80.6334C74.21 80.411 74.4324 79.41 74.5807 78.4091C74.729 77.3711 75.0256 76.1478 75.2109 75.6659L75.5075 74.8132L83.8114 74.9245L92.0782 75.0727L93.524 76.5926ZM80.2896 102.468C80.8457 102.765 81.5871 103.395 81.8837 103.877C82.6993 105.1 83.2924 108.288 83.0329 109.882C82.9217 110.698 82.9588 111.217 83.2183 111.217C83.4407 111.217 83.6631 111.588 83.7373 112.032C83.8855 113.219 84.7752 113.256 85.9615 112.144C86.9624 111.217 87.1107 111.18 91.8929 111.254C94.599 111.291 96.9345 111.402 97.0828 111.476C97.2311 111.551 96.9716 112.032 96.4526 112.551C95.9336 113.07 95.5258 113.589 95.5258 113.775C95.5258 113.923 94.9698 114.627 94.3395 115.369C93.6723 116.11 92.6343 117.334 92.0041 118.112C89.4833 121.337 84.9606 125.6 83.4778 126.082C82.4027 126.453 79.7707 126.601 73.9505 126.601C66.351 126.601 65.869 126.564 65.313 125.86C64.4233 124.711 64.794 119.966 66.2397 114.183C66.4622 113.256 66.7958 111.847 66.9812 111.032C67.1294 110.216 67.5743 108.288 67.9079 106.768C68.2416 105.249 68.6123 103.543 68.7235 102.95L68.9089 101.949H74.0988C77.88 101.949 79.5112 102.097 80.2896 102.468Z" fill="#19191E"/>
</svg>
